<?xml version="1.0" ?><svg viewBox="0 0 64 64" xmlns="http://www.w3.org/2000/svg"><defs><style>.cls-1{fill:#389ad6;}.cls-2{fill:#9dcbf4;}.cls-3{fill:none;stroke:#2a5081;stroke-linecap:round;stroke-linejoin:round;stroke-width:2px;}.cls-4{fill:#2a5081;}</style></defs><title/><g data-name="Layer 6" id="Layer_6"><path class="cls-1" d="M29.75,29.08s-1.25-1.5-2.5,1.13-2,6.2-.32,6.89,7.25-3.37,7.1-3.68-4.32,2.25-4.36,1.71S29.75,29.08,29.75,29.08Z"/><path class="cls-2" d="M43.65,50c-.77,0-4.23.47-8.4.9-6.32.65-14.27,1.23-17.06,0-3.86-1.7-5.46.5-5.55-9.46,0-.75,0-1.57,0-2.47,0-1.53.06-3.29.12-5.31.12-3.89,0-7.13-.12-9.82-.31-7-.62-10.23,3.38-11.11l.09,0c.21-.05.42-.08.65-.12h.11a25.15,25.15,0,0,1,4.81,0c1,.07,2,.16,3.23.29A53.85,53.85,0,0,0,25.22,24,5.12,5.12,0,0,0,20.85,29V35A5.14,5.14,0,0,0,26,40.1h4.74A23.5,23.5,0,0,0,43.65,50Z"/><path class="cls-1" d="M23.19,24.48S13.13,28.74,13.08,39.84s27.46,6.72,29-1.5c0,0-3.16,1.4-11,1.4s-8.76-1.13-9.81-3S19.43,26.65,23.19,24.48Z"/><path class="cls-3" d="M50.47,17.15V46.23a4.64,4.64,0,0,1-4.62,4.63H17.26a4.64,4.64,0,0,1-4.62-4.62V17.15a4.64,4.64,0,0,1,4.62-4.62H45.85"/><circle class="cls-4" cx="50.52" cy="13.82" r="1"/><path class="cls-3" d="M25.22,24A5.12,5.12,0,0,0,20.85,29V35A5.14,5.14,0,0,0,26,40.1h4.74"/><path class="cls-3" d="M38.43,23.9H26a3.67,3.67,0,0,0-.75.07"/><path class="cls-3" d="M30.71,40.1h7.72A5.14,5.14,0,0,0,43.55,35V29a5.12,5.12,0,0,0-1.32-3.43"/><polyline class="cls-3" points="32.77 30.26 35.79 32 32.77 33.74 29.75 35.49 29.75 32 29.75 28.52"/></g></svg>